<?xml version="1.0" standalone="no"?>
<!DOCTYPE svg PUBLIC "-//W3C//DTD SVG 20010904//EN"
 "http://www.w3.org/TR/2001/REC-SVG-20010904/DTD/svg10.dtd">
<svg version="1.0" xmlns="http://www.w3.org/2000/svg"
 width="626.000000pt" height="626.000000pt" viewBox="0 0 626.000000 626.000000"
 preserveAspectRatio="xMidYMid meet">

<g transform="translate(0.000000,626.000000) scale(0.100000,-0.100000)"
fill="#000000" stroke="none">
<path d="M3263 5055 c-176 -55 -320 -267 -349 -516 -6 -56 -7 -57 -48 -69
-148 -43 -356 -209 -467 -372 -77 -113 -166 -316 -194 -445 -3 -18 -10 -33
-13 -32 -8 0 -86 159 -80 163 65 47 180 154 184 173 19 75 -48 206 -152 294
-51 44 -124 74 -157 65 -13 -3 -75 -49 -137 -102 l-113 -97 6 -68 c6 -66 5
-70 -20 -86 -13 -9 -47 -18 -74 -19 -148 -7 -335 -168 -400 -343 -12 -32 -33
-66 -50 -79 -27 -22 -30 -22 -58 -7 -17 8 -47 15 -69 15 -33 0 -50 -10 -128
-76 -152 -129 -160 -142 -130 -226 12 -32 11 -39 -1 -50 -38 -31 14 -139 87
-182 27 -16 38 -17 61 -9 23 9 36 7 66 -8 59 -30 94 -25 153 24 72 58 90 70
94 66 2 -2 22 -40 44 -84 108 -217 311 -395 553 -485 l86 -32 11 -134 c6 -74
21 -171 32 -216 28 -112 106 -268 175 -350 52 -63 173 -162 243 -200 28 -15
30 -19 26 -60 -9 -79 -13 -90 -32 -83 -146 57 -279 42 -372 -42 -83 -75 -98
-169 -34 -220 39 -31 111 -35 499 -31 304 3 332 5 362 22 49 30 66 86 42 139
-17 38 -49 52 -134 57 l-80 5 -3 53 c-2 28 -1 52 0 52 2 0 44 -9 93 -19 273
-60 728 -52 958 15 15 5 17 -2 17 -50 l0 -56 -80 0 c-74 0 -82 -2 -112 -29
-28 -25 -33 -36 -33 -76 0 -40 5 -51 32 -75 43 -39 89 -42 500 -38 329 3 343
4 370 24 69 52 65 139 -9 212 -69 68 -117 87 -223 86 -58 -1 -106 -7 -134 -18
-24 -9 -46 -14 -49 -12 -2 3 -6 33 -9 68 l-4 63 67 40 c84 50 208 170 262 255
92 142 152 364 152 560 l0 56 58 18 c83 26 207 88 281 139 137 96 274 258 332
392 13 30 28 55 32 55 5 0 38 -25 73 -55 74 -62 103 -68 168 -35 29 14 43 17
58 9 11 -6 32 -8 47 -4 29 6 90 63 110 102 15 29 14 90 -1 95 -10 4 -10 13 0
45 15 52 15 95 0 115 -30 38 -222 188 -241 189 -37 2 -61 -3 -91 -18 -27 -14
-30 -13 -62 18 -19 18 -34 39 -34 47 0 8 -14 44 -31 81 -66 138 -250 279 -371
284 -35 1 -63 9 -81 22 -28 20 -28 21 -16 67 11 40 11 52 -2 76 -14 28 -182
177 -227 201 -106 57 -354 -202 -328 -343 5 -25 26 -49 100 -110 l93 -78 -33
-55 c-18 -31 -39 -72 -45 -91 l-12 -36 -47 145 c-26 79 -62 173 -80 209 -76
151 -193 296 -315 388 -33 25 -64 49 -68 52 -5 4 3 25 16 46 57 87 56 182 -3
262 -36 51 -83 72 -158 72 l-60 0 14 38 c36 100 -10 208 -103 247 -43 18 -143
18 -200 0z m186 -53 c19 -10 42 -29 50 -42 15 -23 15 -24 -4 -16 -11 5 -39 11
-62 13 -40 5 -44 3 -98 -52 -54 -54 -142 -105 -183 -105 -10 0 -28 -7 -41 -17
-27 -18 -109 -185 -118 -238 -7 -41 -23 -47 -23 -7 1 142 121 361 236 433 80
49 185 62 243 31z m218 -299 c7 -19 -45 -62 -83 -69 -47 -9 -84 2 -84 25 0 22
14 34 55 49 38 14 107 11 112 -5z m-202 -252 c166 -44 319 -135 440 -262 106
-112 180 -233 241 -395 40 -107 121 -423 174 -679 27 -132 62 -296 77 -365 25
-114 27 -143 27 -325 0 -184 -2 -208 -26 -297 -93 -345 -349 -557 -769 -639
-218 -42 -553 -44 -779 -5 -338 59 -581 209 -714 439 -119 208 -147 522 -75
852 11 50 40 189 65 310 52 257 129 562 174 690 132 375 402 624 748 690 107
20 311 13 417 -14z m-1408 -204 c76 -43 173 -171 180 -239 4 -42 3 -44 -61
-95 l-64 -53 -30 65 c-34 73 -103 151 -168 192 -24 16 -44 31 -44 35 0 3 27
29 61 57 62 52 87 60 126 38z m2478 -39 c35 -29 64 -56 64 -59 1 -3 -14 -12
-31 -21 -79 -38 -187 -166 -203 -238 -4 -17 -9 -30 -12 -30 -3 0 -34 25 -69
56 -42 37 -64 64 -64 78 0 61 113 215 182 249 50 25 64 21 133 -35z m-2673
-124 c52 -27 117 -95 153 -159 19 -34 35 -67 35 -74 0 -6 -17 0 -39 15 -28 18
-41 35 -45 59 -10 51 -65 95 -121 95 -39 0 -45 3 -51 25 -13 53 12 68 68 39z
m2806 -21 c-3 -38 -3 -38 -55 -43 -62 -6 -98 -36 -113 -91 -7 -26 -22 -44 -49
-62 l-40 -26 11 32 c34 99 160 226 226 227 21 0 23 -4 20 -37z m-2781 -115
c32 -30 29 -48 -7 -48 -16 0 -41 -5 -55 -12 -22 -10 -29 -9 -47 10 -12 12 -20
23 -17 25 72 55 90 59 126 25z m2780 0 c38 -27 39 -29 14 -52 -14 -13 -24 -14
-45 -6 -15 5 -41 10 -57 10 -35 0 -37 13 -4 45 30 31 50 31 92 3z m-2940 -82
l27 -24 -28 -40 c-60 -87 -69 -193 -21 -250 l24 -29 -27 -29 c-73 -80 -227
-168 -312 -180 -45 -5 -45 -5 -83 47 -36 48 -38 56 -32 98 18 133 73 241 162
320 117 103 231 138 290 87z m3178 -5 c81 -38 183 -135 223 -209 34 -64 62
-157 62 -208 0 -43 -58 -133 -86 -133 -76 -2 -228 76 -325 166 -49 46 -49 46
-30 67 58 62 52 176 -14 262 -14 18 -25 35 -25 38 0 15 68 46 100 46 19 0 62
-13 95 -29z m-2937 -40 c70 -36 138 -131 174 -243 l22 -68 -22 -92 c-12 -51
-42 -190 -66 -308 -25 -118 -56 -267 -69 -331 -14 -64 -28 -147 -32 -184 -7
-66 -8 -66 -34 -60 -59 15 -173 69 -247 117 -146 96 -276 244 -346 394 l-30
65 23 25 c19 20 24 36 23 75 0 46 1 49 26 49 82 0 249 91 345 189 45 46 53 51
95 51 56 0 116 33 147 79 42 63 24 82 -30 31 -47 -45 -107 -65 -149 -51 -34
11 -68 54 -68 86 0 60 65 165 114 185 36 15 85 11 124 -9z m2684 -18 c69 -63
98 -160 63 -209 -39 -57 -118 -53 -192 11 -63 54 -82 44 -42 -21 29 -47 95
-84 150 -84 39 0 50 -5 80 -36 91 -96 255 -191 343 -201 l44 -5 -1 -45 c0 -31
7 -53 22 -74 23 -31 23 -31 5 -73 -67 -152 -200 -308 -343 -404 -84 -56 -210
-116 -269 -128 l-27 -6 -12 94 c-6 51 -30 181 -53 288 -24 107 -62 283 -85
390 l-42 195 19 60 c58 175 156 285 255 285 36 0 50 -6 85 -37z m-3499 -361
c71 -48 157 -178 157 -236 0 -16 -21 -39 -66 -75 -36 -29 -67 -51 -68 -49 -1
1 -9 19 -16 38 -29 76 -118 178 -197 226 l-34 20 67 58 c75 64 88 66 157 18z
m4312 -14 c35 -29 64 -56 64 -60 1 -3 -19 -18 -43 -32 -60 -35 -144 -130 -174
-196 -14 -30 -26 -57 -28 -59 -7 -9 -134 112 -134 127 1 80 168 271 238 272 7
0 42 -24 77 -52z m-4537 -125 c81 -44 192 -194 192 -260 0 -18 -5 -23 -27 -23
-47 0 -58 13 -38 43 19 30 14 53 -23 109 -40 62 -127 101 -148 67 -9 -16 -24
9 -24 42 0 44 16 49 68 22z m4676 1 c3 -8 3 -26 0 -39 -5 -22 -10 -24 -49 -18
-39 5 -46 2 -84 -33 -66 -59 -91 -130 -59 -162 17 -17 -7 -33 -42 -30 -21 3
-25 8 -23 31 5 69 89 186 172 239 51 32 76 35 85 12z m-4617 -165 c21 -31 24
-42 14 -52 -10 -9 -17 -6 -34 18 -12 17 -32 39 -44 51 -17 15 -19 24 -11 32
16 16 43 -2 75 -49z m4569 50 c3 -6 -10 -27 -30 -48 -20 -20 -36 -43 -36 -50
0 -19 -24 -7 -28 13 -2 11 12 34 34 57 40 41 49 45 60 28z m-4645 -106 c12
-19 19 -36 16 -39 -6 -6 -67 63 -67 76 0 19 30 -3 51 -37z m4690 30 c-14 -27
-71 -78 -71 -65 0 6 14 27 31 47 33 37 57 48 40 18z m-3035 -1617 l59 -24 3
-75 c2 -47 8 -79 16 -86 7 -6 55 -14 105 -18 85 -6 94 -8 104 -30 9 -20 7 -27
-11 -46 -23 -22 -24 -22 -385 -21 -199 0 -374 4 -389 7 -63 16 -42 99 39 158
39 27 56 33 119 37 62 4 86 0 148 -22 87 -31 103 -32 110 -8 6 22 20 135 18
145 -3 10 -2 10 64 -17z m1388 -33 c15 -130 11 -127 121 -88 86 30 183 33 235
7 19 -10 34 -23 32 -31 -1 -7 2 -10 8 -6 24 15 85 -72 75 -105 -13 -41 -34
-43 -421 -44 -352 -1 -373 0 -393 18 -12 11 -21 24 -21 30 1 32 22 40 122 51
l103 10 5 84 5 83 55 23 c30 13 58 24 61 24 4 1 10 -25 13 -56z"/>
<path d="M2716 3645 c-22 -8 -51 -23 -65 -33 -29 -21 -59 -68 -50 -77 3 -3 33
11 65 31 55 33 64 35 126 32 56 -3 74 -9 112 -36 37 -27 46 -30 46 -16 0 26
-72 91 -115 103 -51 14 -71 13 -119 -4z"/>
<path d="M3163 3644 c-117 -42 -192 -192 -127 -257 33 -34 78 -40 249 -36
l137 4 29 33 c51 56 30 134 -55 209 -70 62 -147 77 -233 47z m170 -66 c43 -21
99 -100 90 -126 -13 -37 -34 -42 -176 -42 -184 0 -209 15 -162 96 56 96 148
123 248 72z"/>
<path d="M3715 3651 c-16 -4 -40 -13 -51 -19 -25 -13 -84 -78 -84 -92 0 -16
26 -11 41 7 24 29 91 53 150 53 48 0 65 -5 108 -34 55 -38 70 -35 42 8 -40 61
-133 96 -206 77z"/>
</g>
</svg>
